<svg width="32" height="32" viewBox="0 0 32 32" fill="none" xmlns="http://www.w3.org/2000/svg">
  <!-- Purple gradient background -->
  <rect width="32" height="32" rx="6" fill="url(#gradient)"/>

  <!-- Restaurant/Chef hat icon -->
  <path d="M8 18C8 17.4477 8.44772 17 9 17H23C23.5523 17 24 17.4477 24 18V21C24 22.1046 23.1046 23 22 23H10C8.89543 23 8 22.1046 8 21V18Z" fill="white"/>
  <path d="M9 17C9 14.2386 11.2386 12 14 12H18C20.7614 12 23 14.2386 23 17" stroke="white" stroke-width="2" stroke-linecap="round"/>
  <circle cx="12" cy="13" r="0.75" fill="white"/>
  <circle cx="16" cy="12" r="0.75" fill="white"/>
  <circle cx="20" cy="13" r="0.75" fill="white"/>

  <!-- Gradient definition -->
  <defs>
    <linearGradient id="gradient" x1="0" y1="0" x2="32" y2="32" gradientUnits="userSpaceOnUse">
      <stop offset="0%" stop-color="#8b5cf6"/>
      <stop offset="50%" stop-color="#7c3aed"/>
      <stop offset="100%" stop-color="#6d28d9"/>
    </linearGradient>
  </defs>
</svg>
